<svg id="svg" version="1.1" xmlns="http://www.w3.org/2000/svg" style="display: block;" viewBox="0 0 238 236"><path d="M0,0 L238,0 L238,236 L0,236 Z " transform="translate(0,0)" style="fill: #FBFDFD;"/><path d="M0,0 L7,0 L7,1 L9,1 L9,2 L10,2 L10,3 L11,3 L11,4 L13,4 L13,5 L14,5 L14,7 L15,7 L15,10 L16,10 L16,15 L17,15 L17,34 L16,34 L16,45 L15,45 L15,50 L14,50 L14,55 L13,55 L13,59 L12,59 L12,63 L11,63 L11,67 L10,67 L10,70 L9,70 L9,73 L8,73 L8,77 L7,77 L7,79 L6,79 L6,81 L5,81 L5,83 L4,83 L4,86 L3,86 L3,88 L2,88 L2,91 L1,91 L1,93 L0,93 L0,95 L-1,95 L-1,97 L0,97 L0,99 L1,99 L1,100 L2,100 L2,101 L3,101 L3,102 L4,102 L4,104 L5,104 L5,106 L6,106 L6,107 L7,107 L7,108 L8,108 L8,109 L9,109 L9,111 L10,111 L10,112 L11,112 L11,113 L12,113 L12,114 L13,114 L13,116 L14,116 L14,118 L15,118 L15,119 L16,119 L16,120 L17,120 L17,122 L18,122 L18,123 L19,123 L19,124 L20,124 L20,125 L21,125 L21,127 L22,127 L22,128 L23,128 L23,130 L24,130 L24,131 L25,131 L25,132 L26,132 L26,133 L27,133 L27,134 L28,134 L28,136 L29,136 L29,138 L30,138 L30,139 L31,139 L31,140 L32,140 L32,142 L33,142 L33,143 L34,143 L34,144 L35,144 L35,146 L36,146 L36,147 L37,147 L37,149 L38,149 L38,150 L39,150 L39,151 L40,151 L40,152 L41,152 L41,154 L42,154 L42,155 L43,155 L43,156 L44,156 L44,158 L45,158 L45,159 L46,159 L46,161 L47,161 L47,162 L48,162 L48,164 L49,164 L49,165 L50,165 L50,166 L51,166 L51,167 L52,167 L52,168 L53,168 L53,170 L54,170 L54,171 L55,171 L55,173 L56,173 L56,174 L57,174 L57,176 L58,176 L58,177 L59,177 L59,178 L60,178 L60,180 L61,180 L61,181 L62,181 L62,182 L63,182 L63,184 L64,184 L64,185 L65,185 L65,187 L66,187 L66,188 L67,188 L67,189 L68,189 L68,190 L69,190 L69,192 L70,192 L70,193 L71,193 L71,194 L72,194 L72,196 L73,196 L73,197 L74,197 L74,198 L75,198 L75,200 L76,200 L76,201 L77,201 L77,203 L78,203 L78,204 L79,204 L79,205 L80,205 L80,206 L81,206 L81,208 L82,208 L82,209 L83,209 L83,210 L84,210 L84,212 L85,212 L85,213 L86,213 L86,214 L87,214 L87,216 L88,216 L88,218 L89,218 L89,219 L90,219 L90,220 L91,220 L91,221 L92,221 L92,223 L93,223 L93,224 L94,224 L94,225 L95,225 L95,226 L96,226 L96,229 L42,229 L42,228 L41,228 L41,227 L40,227 L40,226 L39,226 L39,224 L38,224 L38,223 L37,223 L37,221 L36,221 L36,220 L35,220 L35,219 L34,219 L34,217 L33,217 L33,216 L32,216 L32,214 L31,214 L31,213 L30,213 L30,212 L29,212 L29,210 L28,210 L28,209 L27,209 L27,208 L26,208 L26,206 L25,206 L25,205 L24,205 L24,203 L23,203 L23,202 L22,202 L22,201 L21,201 L21,199 L20,199 L20,198 L19,198 L19,196 L17,196 L17,194 L16,194 L16,192 L15,192 L15,191 L14,191 L14,190 L13,190 L13,189 L12,189 L12,187 L11,187 L11,186 L10,186 L10,184 L9,184 L9,183 L8,183 L8,182 L7,182 L7,181 L6,181 L6,179 L5,179 L5,177 L4,177 L4,176 L3,176 L3,175 L2,175 L2,173 L1,173 L1,172 L0,172 L0,170 L-1,170 L-1,169 L-2,169 L-2,168 L-3,168 L-3,166 L-4,166 L-4,165 L-5,165 L-5,164 L-6,164 L-6,162 L-7,162 L-7,161 L-8,161 L-8,160 L-9,160 L-9,158 L-10,158 L-10,157 L-11,157 L-11,156 L-12,156 L-12,154 L-13,154 L-13,153 L-14,153 L-14,152 L-15,152 L-15,150 L-16,150 L-16,149 L-17,149 L-17,147 L-18,147 L-18,146 L-19,146 L-19,144 L-20,144 L-20,143 L-21,143 L-21,142 L-22,142 L-22,141 L-23,141 L-23,139 L-26,139 L-26,141 L-27,141 L-27,143 L-28,143 L-28,144 L-29,144 L-29,146 L-30,146 L-30,147 L-31,147 L-31,149 L-32,149 L-32,150 L-33,150 L-33,151 L-34,151 L-34,153 L-35,153 L-35,155 L-36,155 L-36,157 L-37,157 L-37,158 L-38,158 L-38,159 L-39,159 L-39,160 L-40,160 L-40,162 L-41,162 L-41,164 L-42,164 L-42,165 L-43,165 L-43,167 L-44,167 L-44,168 L-57,168 L-57,167 L-56,167 L-56,166 L-55,166 L-55,165 L-54,165 L-54,163 L-53,163 L-53,162 L-52,162 L-52,161 L-51,161 L-51,159 L-50,159 L-50,157 L-48,157 L-48,155 L-47,155 L-47,154 L-46,154 L-46,153 L-45,153 L-45,151 L-44,151 L-44,150 L-43,150 L-43,144 L-42,144 L-42,142 L-41,142 L-41,139 L-40,139 L-40,137 L-39,137 L-39,135 L-38,135 L-38,134 L-37,134 L-37,133 L-35,133 L-35,132 L-34,132 L-34,128 L-37,128 L-37,126 L-38,126 L-38,125 L-37,125 L-37,124 L-39,124 L-39,121 L-40,121 L-40,120 L-41,120 L-41,122 L-42,122 L-42,120 L-43,120 L-43,118 L-44,118 L-44,117 L-45,117 L-45,116 L-47,116 L-47,114 L-51,114 L-51,113 L-52,113 L-52,111 L-53,111 L-53,110 L-54,110 L-54,113 L-53,113 L-53,116 L-54,116 L-54,115 L-55,115 L-55,113 L-56,113 L-56,110 L-57,110 L-57,104 L-56,104 L-56,105 L-55,105 L-55,106 L-53,106 L-53,105 L-52,105 L-52,102 L-53,102 L-53,99 L-54,99 L-54,100 L-55,100 L-55,99 L-57,99 L-57,102 L-59,102 L-59,96 L-58,96 L-58,94 L-59,94 L-59,93 L-61,93 L-61,92 L-64,92 L-64,90 L-65,90 L-65,91 L-66,91 L-66,88 L-67,88 L-67,86 L-66,86 L-66,83 L-67,83 L-67,78 L-72,78 L-72,75 L-71,75 L-71,74 L-75,74 L-75,75 L-78,75 L-78,76 L-79,76 L-79,78 L-80,78 L-80,80 L-81,80 L-81,81 L-82,81 L-82,82 L-83,82 L-83,84 L-84,84 L-84,86 L-85,86 L-85,87 L-86,87 L-86,89 L-87,89 L-87,91 L-88,91 L-88,92 L-89,92 L-89,93 L-90,93 L-90,95 L-91,95 L-91,97 L-92,97 L-92,98 L-93,98 L-93,100 L-94,100 L-94,102 L-95,102 L-95,104 L-96,104 L-96,106 L-97,106 L-97,107 L-98,107 L-98,109 L-99,109 L-99,111 L-100,111 L-100,113 L-101,113 L-101,116 L-102,116 L-102,117 L-103,117 L-103,120 L-104,120 L-104,122 L-105,122 L-105,124 L-106,124 L-106,127 L-107,127 L-107,128 L-108,128 L-108,130 L-109,130 L-109,133 L-110,133 L-110,135 L-111,135 L-111,138 L-112,138 L-112,141 L-113,141 L-113,143 L-114,143 L-114,146 L-115,146 L-115,149 L-116,149 L-116,152 L-117,152 L-117,157 L-118,157 L-118,159 L-119,159 L-119,163 L-120,163 L-120,169 L-121,169 L-121,193 L-120,193 L-120,197 L-119,197 L-119,199 L-118,199 L-118,200 L-117,200 L-117,201 L-116,201 L-116,202 L-115,202 L-115,204 L-113,204 L-113,205 L-102,205 L-102,204 L-99,204 L-99,203 L-97,203 L-97,202 L-94,202 L-94,201 L-93,201 L-93,200 L-91,200 L-91,199 L-90,199 L-90,198 L-71,198 L-71,201 L-74,201 L-74,202 L-75,202 L-75,204 L-77,204 L-77,205 L-78,205 L-78,206 L-79,206 L-79,207 L-81,207 L-81,208 L-82,208 L-82,209 L-83,209 L-83,210 L-85,210 L-85,211 L-86,211 L-86,212 L-87,212 L-87,213 L-88,213 L-88,214 L-90,214 L-90,215 L-91,215 L-91,216 L-92,216 L-92,217 L-94,217 L-94,218 L-95,218 L-95,219 L-97,219 L-97,220 L-98,220 L-98,221 L-100,221 L-100,222 L-101,222 L-101,223 L-104,223 L-104,224 L-106,224 L-106,225 L-107,225 L-107,226 L-110,226 L-110,227 L-113,227 L-113,228 L-123,228 L-123,227 L-125,227 L-125,226 L-126,226 L-126,225 L-127,225 L-127,224 L-128,224 L-128,222 L-129,222 L-129,221 L-130,221 L-130,218 L-131,218 L-131,215 L-132,215 L-132,210 L-133,210 L-133,206 L-134,206 L-134,193 L-133,193 L-133,184 L-132,184 L-132,178 L-131,178 L-131,173 L-130,173 L-130,170 L-129,170 L-129,165 L-128,165 L-128,162 L-127,162 L-127,159 L-126,159 L-126,156 L-125,156 L-125,153 L-124,153 L-124,150 L-123,150 L-123,147 L-122,147 L-122,145 L-121,145 L-121,143 L-120,143 L-120,140 L-119,140 L-119,138 L-118,138 L-118,136 L-117,136 L-117,134 L-116,134 L-116,131 L-115,131 L-115,129 L-114,129 L-114,127 L-113,127 L-113,125 L-112,125 L-112,123 L-111,123 L-111,121 L-110,121 L-110,119 L-109,119 L-109,117 L-108,117 L-108,116 L-107,116 L-107,114 L-106,114 L-106,112 L-105,112 L-105,110 L-104,110 L-104,108 L-103,108 L-103,106 L-102,106 L-102,101 L-101,101 L-101,100 L-100,100 L-100,97 L-99,97 L-99,96 L-101,96 L-101,99 L-105,99 L-105,85 L-104,85 L-104,81 L-103,81 L-103,87 L-102,87 L-102,85 L-101,85 L-101,94 L-100,94 L-100,93 L-97,93 L-97,92 L-98,92 L-98,90 L-99,90 L-99,88 L-98,88 L-98,86 L-99,86 L-99,85 L-97,85 L-97,84 L-96,84 L-96,83 L-95,83 L-95,82 L-94,82 L-94,81 L-93,81 L-93,80 L-92,80 L-92,79 L-91,79 L-91,77 L-89,77 L-89,75 L-88,75 L-88,74 L-87,74 L-87,73 L-86,73 L-86,70 L-85,70 L-85,69 L-84,69 L-84,65 L-86,65 L-86,66 L-87,66 L-87,64 L-86,64 L-86,63 L-87,63 L-87,61 L-89,61 L-89,58 L-90,58 L-90,56 L-92,56 L-92,42 L-91,42 L-91,37 L-90,37 L-90,36 L-89,36 L-89,34 L-88,34 L-88,32 L-89,32 L-89,33 L-90,33 L-90,35 L-91,35 L-91,29 L-89,29 L-89,30 L-88,30 L-88,29 L-87,29 L-87,24 L-86,24 L-86,23 L-83,23 L-83,22 L-81,22 L-81,21 L-75,21 L-75,22 L-79,22 L-79,23 L-69,23 L-69,22 L-67,22 L-67,23 L-65,23 L-65,24 L-58,24 L-58,25 L-57,25 L-57,26 L-52,26 L-52,25 L-51,25 L-51,26 L-48,26 L-48,25 L-47,25 L-47,24 L-45,24 L-45,23 L-40,23 L-40,22 L-39,22 L-39,21 L-38,21 L-38,20 L-36,20 L-36,19 L-35,19 L-35,18 L-34,18 L-34,17 L-33,17 L-33,16 L-32,16 L-32,15 L-30,15 L-30,14 L-29,14 L-29,13 L-27,13 L-27,12 L-26,12 L-26,11 L-24,11 L-24,10 L-23,10 L-23,9 L-21,9 L-21,8 L-19,8 L-19,7 L-17,7 L-17,6 L-15,6 L-15,5 L-13,5 L-13,4 L-11,4 L-11,3 L-9,3 L-9,2 L-5,2 L-5,1 L0,1 Z " transform="translate(139,3)" style="fill: #0759E1;"/><path d="M0,0 L6,0 L6,1 L2,1 L2,2 L12,2 L12,1 L14,1 L14,2 L16,2 L16,3 L23,3 L23,4 L24,4 L24,5 L29,5 L29,4 L30,4 L30,5 L33,5 L33,4 L34,4 L34,3 L36,3 L36,2 L40,2 L40,3 L39,3 L39,4 L38,4 L38,5 L37,5 L37,6 L35,6 L35,9 L36,9 L36,11 L37,11 L37,12 L38,12 L38,13 L39,13 L39,14 L41,14 L41,13 L42,13 L42,12 L44,12 L44,11 L45,11 L45,10 L46,10 L46,9 L48,9 L48,8 L50,8 L50,7 L52,7 L52,6 L54,6 L54,5 L56,5 L56,4 L59,4 L59,3 L68,3 L68,4 L70,4 L70,5 L71,5 L71,6 L73,6 L73,8 L75,8 L75,10 L76,10 L76,12 L77,12 L77,15 L78,15 L78,38 L77,38 L77,42 L76,42 L76,48 L75,48 L75,51 L74,51 L74,54 L73,54 L73,58 L72,58 L72,61 L71,61 L71,64 L70,64 L70,66 L69,66 L69,70 L68,70 L68,72 L67,72 L67,75 L66,75 L66,77 L65,77 L65,80 L64,80 L64,82 L63,82 L63,84 L62,84 L62,86 L61,86 L61,88 L60,88 L60,90 L59,90 L59,93 L58,93 L58,95 L57,95 L57,96 L56,96 L56,98 L55,98 L55,100 L54,100 L54,102 L53,102 L53,104 L52,104 L52,106 L51,106 L51,108 L50,108 L50,110 L49,110 L49,111 L48,111 L48,112 L47,112 L47,114 L46,114 L46,116 L45,116 L45,118 L44,118 L44,120 L43,120 L43,121 L42,121 L42,122 L41,122 L41,124 L40,124 L40,125 L39,125 L39,127 L38,127 L38,123 L39,123 L39,121 L40,121 L40,118 L41,118 L41,116 L42,116 L42,114 L43,114 L43,113 L44,113 L44,112 L46,112 L46,111 L47,111 L47,107 L44,107 L44,105 L43,105 L43,104 L44,104 L44,103 L42,103 L42,100 L41,100 L41,99 L40,99 L40,101 L39,101 L39,99 L38,99 L38,97 L37,97 L37,96 L36,96 L36,95 L34,95 L34,93 L30,93 L30,92 L29,92 L29,90 L28,90 L28,89 L27,89 L27,92 L28,92 L28,95 L27,95 L27,94 L26,94 L26,92 L25,92 L25,89 L24,89 L24,83 L25,83 L25,84 L26,84 L26,85 L28,85 L28,84 L29,84 L29,81 L28,81 L28,78 L27,78 L27,79 L26,79 L26,78 L24,78 L24,81 L22,81 L22,75 L23,75 L23,73 L22,73 L22,72 L20,72 L20,71 L17,71 L17,69 L16,69 L16,70 L15,70 L15,67 L14,67 L14,65 L15,65 L15,62 L14,62 L14,57 L9,57 L9,54 L10,54 L10,53 L6,53 L6,54 L3,54 L3,55 L2,55 L2,57 L1,57 L1,59 L0,59 L0,60 L-1,60 L-1,61 L-2,61 L-2,63 L-3,63 L-3,65 L-4,65 L-4,66 L-5,66 L-5,68 L-6,68 L-6,70 L-7,70 L-7,71 L-8,71 L-8,72 L-9,72 L-9,74 L-10,74 L-10,76 L-11,76 L-11,77 L-12,77 L-12,79 L-13,79 L-13,81 L-14,81 L-14,83 L-15,83 L-15,85 L-16,85 L-16,86 L-17,86 L-17,88 L-18,88 L-18,90 L-19,90 L-19,92 L-20,92 L-20,95 L-21,95 L-21,96 L-22,96 L-22,99 L-23,99 L-23,101 L-24,101 L-24,103 L-25,103 L-25,106 L-26,106 L-26,107 L-27,107 L-27,109 L-28,109 L-28,112 L-29,112 L-29,114 L-30,114 L-30,117 L-31,117 L-31,120 L-32,120 L-32,122 L-33,122 L-33,125 L-34,125 L-34,128 L-35,128 L-35,131 L-36,131 L-36,136 L-37,136 L-37,138 L-38,138 L-38,142 L-39,142 L-39,148 L-40,148 L-40,172 L-39,172 L-39,176 L-38,176 L-38,178 L-37,178 L-37,179 L-36,179 L-36,180 L-35,180 L-35,181 L-34,181 L-34,183 L-32,183 L-32,184 L-21,184 L-21,183 L-18,183 L-18,182 L-16,182 L-16,181 L-13,181 L-13,180 L-12,180 L-12,179 L-10,179 L-10,178 L-9,178 L-9,177 L10,177 L10,180 L7,180 L7,181 L6,181 L6,183 L4,183 L4,184 L3,184 L3,185 L2,185 L2,186 L0,186 L0,187 L-1,187 L-1,188 L-2,188 L-2,189 L-4,189 L-4,190 L-5,190 L-5,191 L-6,191 L-6,192 L-7,192 L-7,193 L-9,193 L-9,194 L-10,194 L-10,195 L-11,195 L-11,196 L-13,196 L-13,197 L-14,197 L-14,198 L-16,198 L-16,199 L-17,199 L-17,200 L-19,200 L-19,201 L-20,201 L-20,202 L-23,202 L-23,203 L-25,203 L-25,204 L-26,204 L-26,205 L-29,205 L-29,206 L-32,206 L-32,207 L-42,207 L-42,206 L-44,206 L-44,205 L-45,205 L-45,204 L-46,204 L-46,203 L-47,203 L-47,201 L-48,201 L-48,200 L-49,200 L-49,197 L-50,197 L-50,194 L-51,194 L-51,189 L-52,189 L-52,185 L-53,185 L-53,172 L-52,172 L-52,163 L-51,163 L-51,157 L-50,157 L-50,152 L-49,152 L-49,149 L-48,149 L-48,144 L-47,144 L-47,141 L-46,141 L-46,138 L-45,138 L-45,135 L-44,135 L-44,132 L-43,132 L-43,129 L-42,129 L-42,126 L-41,126 L-41,124 L-40,124 L-40,122 L-39,122 L-39,119 L-38,119 L-38,117 L-37,117 L-37,115 L-36,115 L-36,113 L-35,113 L-35,110 L-34,110 L-34,108 L-33,108 L-33,106 L-32,106 L-32,104 L-31,104 L-31,102 L-30,102 L-30,100 L-29,100 L-29,98 L-28,98 L-28,96 L-27,96 L-27,95 L-26,95 L-26,93 L-25,93 L-25,91 L-24,91 L-24,89 L-23,89 L-23,87 L-22,87 L-22,85 L-21,85 L-21,80 L-20,80 L-20,79 L-19,79 L-19,76 L-18,76 L-18,75 L-20,75 L-20,78 L-24,78 L-24,64 L-23,64 L-23,60 L-22,60 L-22,66 L-21,66 L-21,64 L-20,64 L-20,73 L-19,73 L-19,72 L-16,72 L-16,71 L-17,71 L-17,69 L-18,69 L-18,67 L-17,67 L-17,65 L-18,65 L-18,64 L-16,64 L-16,63 L-15,63 L-15,62 L-14,62 L-14,61 L-13,61 L-13,60 L-12,60 L-12,59 L-11,59 L-11,58 L-10,58 L-10,56 L-8,56 L-8,54 L-7,54 L-7,53 L-6,53 L-6,52 L-5,52 L-5,49 L-4,49 L-4,48 L-3,48 L-3,44 L-5,44 L-5,45 L-6,45 L-6,43 L-5,43 L-5,42 L-6,42 L-6,40 L-8,40 L-8,37 L-9,37 L-9,35 L-11,35 L-11,21 L-10,21 L-10,16 L-9,16 L-9,15 L-8,15 L-8,13 L-7,13 L-7,11 L-8,11 L-8,12 L-9,12 L-9,14 L-10,14 L-10,8 L-8,8 L-8,9 L-7,9 L-7,8 L-6,8 L-6,3 L-5,3 L-5,2 L-2,2 L-2,1 L0,1 Z " transform="translate(58,24)" style="fill: #F3F6F9;"/><path d="M0,0 L3,0 L3,1 L4,1 L4,2 L5,2 L5,3 L4,3 L4,4 L3,4 L3,6 L2,6 L2,8 L1,8 L1,9 L0,9 L0,10 L-1,10 L-1,12 L-2,12 L-2,14 L-3,14 L-3,15 L-4,15 L-4,17 L-5,17 L-5,19 L-6,19 L-6,20 L-7,20 L-7,21 L-8,21 L-8,23 L-9,23 L-9,25 L-10,25 L-10,26 L-11,26 L-11,28 L-12,28 L-12,30 L-13,30 L-13,32 L-14,32 L-14,34 L-15,34 L-15,35 L-16,35 L-16,37 L-17,37 L-17,39 L-18,39 L-18,41 L-19,41 L-19,44 L-20,44 L-20,45 L-21,45 L-21,48 L-22,48 L-22,50 L-23,50 L-23,52 L-24,52 L-24,55 L-25,55 L-25,56 L-26,56 L-26,58 L-27,58 L-27,61 L-28,61 L-28,63 L-29,63 L-29,66 L-30,66 L-30,69 L-31,69 L-31,71 L-32,71 L-32,74 L-33,74 L-33,77 L-34,77 L-34,80 L-35,80 L-35,85 L-36,85 L-36,87 L-37,87 L-37,91 L-38,91 L-38,97 L-39,97 L-39,121 L-38,121 L-38,125 L-37,125 L-37,127 L-36,127 L-36,128 L-35,128 L-35,129 L-34,129 L-34,130 L-33,130 L-33,132 L-31,132 L-31,133 L-20,133 L-20,132 L-17,132 L-17,131 L-15,131 L-15,130 L-12,130 L-12,129 L-11,129 L-11,128 L-9,128 L-9,127 L-8,127 L-8,126 L11,126 L11,129 L8,129 L8,130 L7,130 L7,132 L5,132 L5,133 L4,133 L4,134 L3,134 L3,135 L1,135 L1,136 L0,136 L0,137 L-1,137 L-1,138 L-3,138 L-3,139 L-4,139 L-4,140 L-5,140 L-5,141 L-6,141 L-6,142 L-8,142 L-8,143 L-9,143 L-9,144 L-10,144 L-10,145 L-12,145 L-12,146 L-13,146 L-13,147 L-15,147 L-15,148 L-16,148 L-16,149 L-18,149 L-18,150 L-19,150 L-19,151 L-22,151 L-22,152 L-24,152 L-24,153 L-25,153 L-25,154 L-28,154 L-28,155 L-31,155 L-31,156 L-41,156 L-41,155 L-43,155 L-43,154 L-44,154 L-44,153 L-45,153 L-45,152 L-46,152 L-46,150 L-47,150 L-47,149 L-48,149 L-48,146 L-49,146 L-49,143 L-50,143 L-50,138 L-51,138 L-51,134 L-52,134 L-52,121 L-51,121 L-51,112 L-50,112 L-50,106 L-49,106 L-49,101 L-48,101 L-48,98 L-47,98 L-47,93 L-46,93 L-46,90 L-45,90 L-45,87 L-44,87 L-44,84 L-43,84 L-43,81 L-42,81 L-42,78 L-41,78 L-41,75 L-40,75 L-40,73 L-39,73 L-39,71 L-38,71 L-38,68 L-37,68 L-37,66 L-36,66 L-36,64 L-35,64 L-35,62 L-34,62 L-34,59 L-33,59 L-33,57 L-32,57 L-32,55 L-31,55 L-31,53 L-30,53 L-30,51 L-29,51 L-29,49 L-28,49 L-28,47 L-27,47 L-27,45 L-26,45 L-26,44 L-25,44 L-25,42 L-24,42 L-24,40 L-23,40 L-23,38 L-22,38 L-22,36 L-21,36 L-21,34 L-20,34 L-20,33 L-19,33 L-19,31 L-18,31 L-18,29 L-17,29 L-17,28 L-16,28 L-16,25 L-15,25 L-15,24 L-14,24 L-14,22 L-13,22 L-13,21 L-12,21 L-12,19 L-11,19 L-11,17 L-10,17 L-10,16 L-9,16 L-9,14 L-8,14 L-8,13 L-7,13 L-7,11 L-6,11 L-6,10 L-5,10 L-5,8 L-4,8 L-4,6 L-3,6 L-3,5 L-2,5 L-2,3 L-1,3 L-1,2 L0,2 Z " transform="translate(57,75)" style="fill: #0F5BDA;"/><path d="M0,0 L8,0 L8,1 L13,1 L13,2 L15,2 L15,3 L17,3 L17,4 L18,4 L18,5 L20,5 L20,7 L22,7 L22,8 L23,8 L23,9 L24,9 L24,10 L25,10 L25,12 L26,12 L26,14 L27,14 L27,18 L28,18 L28,30 L27,30 L27,32 L26,32 L26,34 L25,34 L25,36 L24,36 L24,37 L23,37 L23,39 L22,39 L22,40 L21,40 L21,41 L19,41 L19,42 L18,42 L18,43 L17,43 L17,44 L15,44 L15,45 L12,45 L12,47 L-1,47 L-1,46 L-4,46 L-4,45 L-6,45 L-6,44 L-8,44 L-8,43 L-9,43 L-9,42 L-11,42 L-11,41 L-12,41 L-12,39 L-13,39 L-13,38 L-14,38 L-14,37 L-15,37 L-15,36 L-16,36 L-16,33 L-17,33 L-17,31 L-18,31 L-18,28 L-19,28 L-19,18 L-18,18 L-18,15 L-17,15 L-17,13 L-16,13 L-16,11 L-15,11 L-15,10 L-14,10 L-14,8 L-13,8 L-13,7 L-11,7 L-11,6 L-10,6 L-10,5 L-9,5 L-9,4 L-8,4 L-8,3 L-6,3 L-6,2 L-4,2 L-4,1 L0,1 Z " transform="translate(68,28)" style="fill: #DF0607;"/><path d="M0,0 L1,0 L1,1 L2,1 L2,3 L3,3 L3,4 L4,4 L4,5 L5,5 L5,7 L6,7 L6,8 L8,8 L8,10 L9,10 L9,12 L10,12 L10,13 L11,13 L11,14 L12,14 L12,16 L13,16 L13,17 L12,17 L12,20 L11,20 L11,24 L10,24 L10,26 L9,26 L9,29 L8,29 L8,32 L7,32 L7,34 L6,34 L6,37 L5,37 L5,40 L4,40 L4,42 L3,42 L3,44 L2,44 L2,46 L1,46 L1,48 L0,48 L0,50 L-1,50 L-1,52 L-2,52 L-2,54 L-3,54 L-3,56 L-4,56 L-4,58 L-5,58 L-5,60 L-6,60 L-6,62 L-8,62 L-8,60 L-9,60 L-9,59 L-10,59 L-10,58 L-11,58 L-11,56 L-12,56 L-12,55 L-13,55 L-13,54 L-14,54 L-14,52 L-15,52 L-15,51 L-16,51 L-16,49 L-17,49 L-17,48 L-18,48 L-18,47 L-19,47 L-19,45 L-20,45 L-20,44 L-21,44 L-21,43 L-22,43 L-22,41 L-23,41 L-23,40 L-24,40 L-24,39 L-25,39 L-25,37 L-26,37 L-26,36 L-27,36 L-27,35 L-28,35 L-28,33 L-29,33 L-29,32 L-30,32 L-30,31 L-31,31 L-31,29 L-32,29 L-32,27 L-31,27 L-31,25 L-29,25 L-29,24 L-28,24 L-28,23 L-26,23 L-26,21 L-24,21 L-24,20 L-23,20 L-23,19 L-22,19 L-22,18 L-21,18 L-21,17 L-20,17 L-20,16 L-18,16 L-18,15 L-17,15 L-17,14 L-16,14 L-16,13 L-15,13 L-15,12 L-13,12 L-13,11 L-12,11 L-12,10 L-11,10 L-11,9 L-10,9 L-10,8 L-8,8 L-8,7 L-7,7 L-7,6 L-6,6 L-6,5 L-5,5 L-5,4 L-4,4 L-4,3 L-2,3 L-2,2 L-1,2 L-1,1 L0,1 Z " transform="translate(111,64)" style="fill: #0859DF;"/><path d="M0,0 L1,0 L1,4 L0,4 L0,7 L1,7 L1,6 L2,6 L2,3 L3,3 L3,5 L4,5 L4,16 L15,16 L15,18 L6,18 L6,23 L10,23 L10,24 L11,24 L11,25 L10,25 L10,27 L12,27 L12,24 L13,24 L13,26 L14,26 L14,27 L17,27 L17,28 L18,28 L18,29 L20,29 L20,30 L22,30 L22,31 L21,31 L21,34 L23,34 L23,40 L20,40 L20,41 L14,41 L14,36 L8,36 L8,39 L7,39 L7,43 L6,43 L6,49 L7,49 L7,50 L8,50 L8,51 L14,51 L14,50 L15,50 L15,49 L16,49 L16,47 L17,47 L17,46 L22,46 L22,49 L21,49 L21,50 L20,50 L20,51 L19,51 L19,52 L18,52 L18,53 L17,53 L17,54 L15,54 L15,55 L6,55 L6,54 L4,54 L4,53 L3,53 L3,52 L2,52 L2,51 L-2,51 L-2,45 L-3,45 L-3,39 L-2,39 L-2,37 L-3,37 L-3,36 L-4,36 L-4,35 L-6,35 L-6,36 L-7,36 L-7,50 L-6,50 L-6,54 L-5,54 L-5,58 L-6,58 L-6,56 L-7,56 L-7,52 L-8,52 L-8,28 L-7,28 L-7,22 L-6,22 L-6,18 L-5,18 L-5,16 L-4,16 L-4,11 L-3,11 L-3,8 L-2,8 L-2,5 L-1,5 L-1,2 L0,2 Z " transform="translate(26,144)" style="fill: #E9F5FA;"/><path d="M0,0 L1,0 L1,1 L2,1 L2,3 L3,3 L3,4 L4,4 L4,5 L5,5 L5,7 L6,7 L6,8 L7,8 L7,9 L8,9 L8,11 L9,11 L9,12 L10,12 L10,13 L11,13 L11,15 L12,15 L12,16 L13,16 L13,17 L14,17 L14,19 L15,19 L15,20 L16,20 L16,21 L17,21 L17,23 L18,23 L18,24 L19,24 L19,26 L20,26 L20,27 L21,27 L21,28 L22,28 L22,30 L23,30 L23,32 L24,32 L24,33 L25,33 L25,34 L26,34 L26,35 L27,35 L27,37 L28,37 L28,38 L29,38 L29,40 L30,40 L30,41 L31,41 L31,42 L32,42 L32,43 L33,43 L33,45 L34,45 L34,47 L36,47 L36,49 L37,49 L37,50 L38,50 L38,51 L36,51 L36,50 L34,50 L34,51 L33,51 L33,46 L32,46 L32,47 L31,47 L31,45 L30,45 L30,42 L29,42 L29,41 L27,41 L27,40 L26,40 L26,39 L25,39 L25,37 L23,37 L23,36 L21,36 L21,38 L19,38 L19,40 L20,40 L20,47 L13,47 L13,44 L12,44 L12,42 L1,42 L1,46 L0,46 L0,47 L-6,47 L-6,45 L-5,45 L-5,44 L-4,44 L-4,41 L-3,41 L-3,29 L-2,29 L-2,28 L-1,28 L-1,27 L0,27 L0,26 L1,26 L1,24 L2,24 L2,23 L-1,23 L-1,19 L1,19 L1,18 L8,18 L8,19 L11,19 L11,16 L10,16 L10,15 L6,15 L6,12 L5,12 L5,8 L3,8 L3,7 L2,7 L2,5 L0,5 Z " transform="translate(122,152)" style="fill: #E1F3FC;"/><path d="M0,0 L7,0 L7,3 L8,3 L8,5 L9,5 L9,7 L10,7 L10,10 L11,10 L11,12 L12,12 L12,15 L13,15 L13,17 L14,17 L14,20 L15,20 L15,22 L16,22 L16,24 L10,24 L10,23 L9,23 L9,19 L-2,19 L-2,21 L-3,21 L-3,24 L-9,24 L-9,21 L-8,21 L-8,19 L-7,19 L-7,17 L-6,17 L-6,14 L-5,14 L-5,12 L-4,12 L-4,9 L-3,9 L-3,7 L-2,7 L-2,4 L-1,4 L-1,1 L0,1 Z " transform="translate(61,175)" style="fill: #1D5ED3;"/><path d="M0,0 L7,0 L7,1 L8,1 L8,3 L9,3 L9,7 L10,7 L10,9 L11,9 L11,11 L12,11 L12,13 L13,13 L13,16 L14,16 L14,18 L15,18 L15,21 L16,21 L16,24 L10,24 L10,21 L9,21 L9,19 L-2,19 L-2,23 L-3,23 L-3,24 L-9,24 L-9,22 L-8,22 L-8,21 L-7,21 L-7,18 L-6,18 L-6,15 L-5,15 L-5,13 L-4,13 L-4,11 L-3,11 L-3,8 L-2,8 L-2,6 L-1,6 L-1,3 L0,3 Z " transform="translate(125,175)" style="fill: #1F5ED1;"/><path d="M0,0 L11,0 L11,1 L14,1 L14,2 L15,2 L15,4 L16,4 L16,7 L11,7 L11,5 L10,5 L10,4 L1,4 L1,8 L2,8 L2,9 L9,9 L9,10 L13,10 L13,11 L15,11 L15,12 L16,12 L16,13 L17,13 L17,19 L16,19 L16,21 L14,21 L14,22 L13,22 L13,23 L12,23 L12,24 L1,24 L1,23 L0,23 L0,22 L-2,22 L-2,21 L-3,21 L-3,20 L-4,20 L-4,18 L-5,18 L-5,16 L1,16 L1,19 L2,19 L2,20 L11,20 L11,19 L12,19 L12,16 L11,16 L11,15 L9,15 L9,14 L4,14 L4,13 L-1,13 L-1,12 L-2,12 L-2,11 L-4,11 L-4,8 L-5,8 L-5,4 L-4,4 L-4,3 L-3,3 L-3,2 L-2,2 L-2,1 L0,1 Z " transform="translate(85,175)" style="fill: #205FCF;"/><path d="M0,0 L10,0 L10,1 L12,1 L12,2 L14,2 L14,4 L15,4 L15,6 L16,6 L16,8 L10,8 L10,6 L9,6 L9,4 L1,4 L1,5 L0,5 L0,7 L-1,7 L-1,17 L0,17 L0,18 L1,18 L1,19 L2,19 L2,20 L8,20 L8,19 L9,19 L9,18 L10,18 L10,16 L11,16 L11,15 L16,15 L16,18 L15,18 L15,19 L14,19 L14,20 L13,20 L13,21 L12,21 L12,22 L11,22 L11,23 L9,23 L9,24 L0,24 L0,23 L-2,23 L-2,22 L-3,22 L-3,21 L-4,21 L-4,20 L-5,20 L-5,18 L-6,18 L-6,17 L-7,17 L-7,7 L-6,7 L-6,5 L-5,5 L-5,4 L-4,4 L-4,2 L-2,2 L-2,1 L0,1 Z " transform="translate(32,175)" style="fill: #1C5DD1;"/><path d="M0,0 L6,0 L6,24 L0,24 Z " transform="translate(106,175)" style="fill: #2967D6;"/><path d="M0,0 L7,0 L7,3 L8,3 L8,5 L9,5 L9,7 L10,7 L10,9 L9,9 L9,11 L8,11 L8,7 L6,7 L6,13 L7,13 L7,15 L0,15 L0,12 L1,12 L1,10 L2,10 L2,7 L3,7 L3,3 L4,3 L4,4 L5,4 L5,1 L0,1 Z " transform="translate(61,175)" style="fill: #225FCD;"/><path d="M0,0 L1,0 L1,3 L2,3 L2,5 L3,5 L3,7 L4,7 L4,9 L-3,9 L-3,6 L-2,6 L-2,4 L-1,4 L-1,1 L0,1 Z " transform="translate(64,181)" style="fill: #B5E1FC;"/><path d="M0,0 L2,0 L2,4 L3,4 L3,6 L4,6 L4,9 L-3,9 L-3,7 L-2,7 L-2,6 L-1,6 L-1,3 L0,3 Z " transform="translate(128,181)" style="fill: #B5DEFD;"/></svg>