<?xml version="1.0" standalone="no"?>
<!DOCTYPE svg PUBLIC "-//W3C//DTD SVG 20010904//EN"
 "http://www.w3.org/TR/2001/REC-SVG-20010904/DTD/svg10.dtd">
<svg version="1.0" xmlns="http://www.w3.org/2000/svg"
 width="512.000000pt" height="512.000000pt" viewBox="0 0 512.000000 512.000000"
 preserveAspectRatio="xMidYMid meet">

<g transform="translate(0.000000,512.000000) scale(0.100000,-0.100000)"
fill="#000000" stroke="none">
<path d="M795 4834 c-243 -59 -452 -270 -509 -514 -20 -83 -20 -237 0 -320 45
-195 188 -372 369 -460 104 -51 187 -70 305 -70 146 0 279 40 392 118 l44 30
192 -149 192 -150 0 -48 c0 -26 32 -330 70 -676 39 -346 70 -636 70 -646 0
-10 -102 -99 -265 -229 l-265 -212 -48 30 c-119 77 -239 112 -382 112 -118 0
-201 -19 -305 -70 -181 -88 -324 -265 -369 -460 -20 -83 -20 -237 0 -320 57
-247 267 -457 514 -514 83 -20 237 -20 320 0 195 45 372 188 460 369 57 117
73 196 68 335 -5 107 -14 150 -53 252 -5 13 37 51 182 167 l188 151 13 -40
c19 -57 92 -133 154 -161 53 -24 54 -24 428 -24 374 0 375 0 428 24 62 28 135
104 154 161 l13 40 188 -151 c145 -116 187 -154 182 -167 -39 -102 -48 -145
-53 -252 -5 -139 11 -218 68 -335 88 -181 265 -324 460 -369 83 -20 237 -20
320 0 247 57 457 267 514 514 20 83 20 237 0 320 -45 195 -188 372 -369 460
-104 51 -187 70 -305 70 -143 0 -263 -35 -382 -112 l-48 -30 -265 212 c-163
130 -265 219 -265 229 0 10 32 300 70 646 39 346 70 650 70 676 l0 48 192 150
192 149 44 -30 c113 -78 246 -118 392 -118 118 0 201 19 305 70 181 88 324
265 369 460 20 83 20 237 0 320 -45 195 -188 372 -369 460 -104 51 -187 70
-305 70 -118 0 -201 -19 -305 -70 -183 -89 -324 -265 -371 -465 -24 -104 -16
-276 18 -372 l26 -72 -193 -150 -194 -151 -580 0 -581 -1 -194 151 -194 151
26 72 c34 96 42 268 18 372 -59 252 -267 461 -516 519 -81 19 -245 19 -325 0z
m325 -338 c74 -38 135 -98 173 -171 26 -51 31 -74 35 -154 4 -78 2 -92 -9 -85
-8 4 -76 57 -152 116 -90 70 -150 110 -173 114 -115 21 -211 -75 -190 -191 9
-48 36 -76 185 -190 72 -55 130 -103 131 -106 1 -19 -73 -34 -165 -34 -90 0
-105 3 -155 29 -74 38 -135 98 -173 171 -30 56 -32 66 -32 165 0 95 3 110 28
160 47 92 123 160 218 194 31 12 70 15 134 13 75 -3 99 -8 145 -31z m3200 0
c73 -37 135 -98 173 -171 30 -56 32 -66 32 -165 0 -99 -2 -109 -32 -165 -38
-73 -99 -133 -173 -171 -50 -26 -65 -29 -155 -29 -92 0 -166 15 -165 34 1 3
59 51 131 106 149 114 176 142 185 190 21 116 -75 212 -190 191 -23 -4 -83
-44 -173 -114 -76 -59 -144 -112 -152 -116 -11 -7 -13 7 -9 85 5 107 31 175
96 243 84 87 161 117 287 113 75 -3 99 -8 145 -31z m-1304 -1288 c-3 -24 -42
-374 -86 -778 -44 -404 -83 -745 -86 -757 l-4 -23 -280 0 -280 0 -4 23 c-3 12
-42 353 -86 757 -44 404 -83 754 -86 778 l-6 42 462 0 462 0 -6 -42z m-1923
-1899 l29 -15 -147 -118 c-103 -83 -151 -128 -161 -152 -50 -121 51 -244 180
-220 23 4 82 45 178 121 78 63 147 115 152 115 4 0 6 -42 4 -92 -4 -79 -9
-102 -35 -153 -38 -72 -99 -133 -173 -171 -50 -27 -64 -29 -160 -29 -96 0
-110 2 -160 29 -74 38 -135 98 -173 171 -30 56 -32 66 -32 165 0 95 3 110 28
160 47 92 123 160 218 194 56 20 210 17 252 -5z m3227 -13 c73 -37 135 -98
173 -171 30 -56 32 -66 32 -165 0 -99 -2 -109 -32 -165 -38 -73 -99 -133 -173
-171 -50 -27 -64 -29 -160 -29 -96 0 -110 2 -160 29 -74 38 -135 99 -173 171
-26 51 -31 74 -35 153 -2 50 0 92 4 92 5 0 74 -52 152 -115 96 -76 155 -117
178 -121 129 -24 230 99 180 220 -10 24 -58 69 -160 151 -81 65 -145 120 -142
122 20 21 91 33 171 30 75 -3 99 -8 145 -31z"/>
</g>
</svg>
