<?xml version="1.0" standalone="no"?>
<!DOCTYPE svg PUBLIC "-//W3C//DTD SVG 20010904//EN"
 "http://www.w3.org/TR/2001/REC-SVG-20010904/DTD/svg10.dtd">
<svg version="1.0" xmlns="http://www.w3.org/2000/svg"
 width="512.000000pt" height="512.000000pt" viewBox="0 0 512.000000 512.000000"
 preserveAspectRatio="xMidYMid meet">

<g transform="translate(0.000000,512.000000) scale(0.100000,-0.100000)"
fill="#000000" stroke="none">
<path d="M3855 5106 c-44 -20 -71 -50 -290 -325 l-200 -251 -233 0 c-213 0
-236 -2 -272 -20 -48 -24 -85 -71 -99 -127 l-12 -43 -509 0 c-281 0 -510 -4
-510 -8 0 -4 13 -46 30 -93 62 -178 63 -375 4 -574 -14 -49 -29 -98 -31 -107
-5 -17 24 -18 505 -18 l510 0 11 -45 c12 -50 58 -107 105 -133 26 -14 68 -18
269 -20 l238 -4 214 -267 c152 -190 225 -273 253 -289 47 -26 134 -30 187 -7
45 18 943 556 1008 603 60 43 87 94 87 163 0 130 -102 218 -229 198 -41 -6
-128 -54 -477 -264 -235 -141 -428 -254 -429 -253 -2 2 -100 125 -219 273
l-216 270 0 174 0 173 218 273 218 272 389 -234 c424 -255 494 -293 541 -293
43 0 114 26 142 53 86 80 81 240 -9 306 -41 30 -996 603 -1032 619 -37 16
-124 15 -162 -2z"/>
<path d="M600 4669 c-427 -110 -668 -559 -525 -979 78 -230 262 -405 500 -475
76 -23 109 -27 210 -27 221 -1 374 62 531 217 101 99 150 178 192 303 23 69
26 93 26 227 1 167 -9 214 -70 339 -101 204 -293 355 -511 401 -98 21 -261 18
-353 -6z m261 -309 c275 -52 430 -345 315 -595 -35 -76 -72 -122 -139 -172
-216 -159 -517 -80 -635 166 -95 197 -23 430 168 546 55 34 150 62 211 64 15
1 50 -4 80 -9z"/>
<path d="M694 4131 c-104 -47 -152 -188 -99 -292 39 -74 143 -128 222 -113
123 22 190 109 181 235 -11 146 -166 233 -304 170z"/>
<path d="M1500 3160 c-160 -191 -469 -307 -746 -279 -195 20 -351 84 -502 207
-30 24 -56 42 -58 39 -2 -2 278 -483 624 -1068 l628 -1064 -462 -5 -462 -5
-43 -30 c-23 -16 -53 -50 -66 -74 -23 -44 -23 -47 -23 -385 0 -311 2 -345 19
-381 22 -47 64 -89 104 -104 20 -8 530 -11 1654 -11 1616 0 1627 0 1669 20 24
12 54 39 70 62 l29 41 3 346 c3 371 1 397 -45 452 -58 69 -55 69 -579 69
l-471 0 -643 1103 c-353 606 -646 1106 -650 1110 -4 5 -26 -15 -50 -43z"/>
</g>
</svg>
