<?xml version="1.0" standalone="no"?>
<!DOCTYPE svg PUBLIC "-//W3C//DTD SVG 20010904//EN"
 "http://www.w3.org/TR/2001/REC-SVG-20010904/DTD/svg10.dtd">
<svg version="1.0" xmlns="http://www.w3.org/2000/svg"
 width="177.000000pt" height="116.000000pt" viewBox="0 0 177.000000 116.000000"
 preserveAspectRatio="xMidYMid meet">

<g transform="translate(0.000000,116.000000) scale(0.100000,-0.100000)"
fill="#000000" stroke="none">
<path d="M335 1086 c-29 -12 -26 -13 55 -20 47 -4 98 -9 113 -12 74 -15 32
-101 -105 -215 -33 -27 -56 -49 -53 -49 3 0 36 15 72 33 89 43 179 129 189
182 8 47 -2 66 -47 82 -46 16 -187 15 -224 -1z"/>
<path d="M240 744 c-53 -9 -100 -25 -95 -34 4 -6 46 -10 94 -10 99 0 147 -13
156 -41 16 -48 -74 -154 -174 -208 -33 -17 -64 -31 -71 -31 -19 0 -5 38 45
128 46 81 53 102 35 102 -22 0 -190 -274 -176 -287 11 -12 97 15 183 57 134
66 233 172 233 249 0 39 -26 56 -104 70 -60 11 -79 12 -126 5z"/>
<path d="M710 370 c0 -15 7 -20 25 -20 18 0 25 5 25 20 0 15 -7 20 -25 20 -18
0 -25 -5 -25 -20z"/>
<path d="M317 332 c-19 -21 -22 -64 -7 -92 5 -10 26 -27 45 -39 27 -16 36 -27
33 -44 -4 -29 -32 -29 -36 0 -2 17 -10 23 -27 23 -32 0 -39 -15 -25 -51 21
-49 98 -54 133 -8 29 40 16 83 -39 122 -44 31 -54 59 -23 65 10 2 19 -6 22
-18 5 -21 41 -28 52 -10 7 11 -12 51 -29 62 -22 15 -83 8 -99 -10z"/>
<path d="M630 220 l0 -130 25 0 25 0 0 130 0 130 -25 0 -25 0 0 -130z"/>
<path d="M880 310 c0 -39 0 -39 -26 -28 -23 11 -29 10 -45 -11 -19 -24 -26
-100 -13 -149 7 -26 48 -40 68 -23 10 8 16 9 21 1 3 -5 15 -10 26 -10 18 0 19
8 19 130 l0 130 -25 0 c-22 0 -25 -4 -25 -40z m0 -120 c0 -50 -15 -74 -31 -49
-13 20 -11 83 3 97 19 19 28 3 28 -48z"/>
<path d="M950 341 c0 -16 51 -245 55 -249 16 -17 33 18 49 99 27 142 28 142
47 30 21 -122 24 -131 42 -131 16 0 79 253 65 259 -16 6 -21 -8 -43 -122 -17
-88 -23 -106 -28 -82 -3 17 -14 70 -23 118 -13 69 -20 87 -33 85 -15 -3 -19
-17 -52 -173 l-12 -60 -18 100 c-10 55 -18 108 -18 118 -1 17 -31 25 -31 8z"/>
<path d="M1480 220 c0 -80 4 -130 10 -130 6 0 10 17 10 39 0 21 6 44 13 50 11
8 19 0 37 -39 13 -28 29 -50 37 -50 9 0 4 18 -17 61 l-31 60 27 32 c17 20 22
33 14 35 -6 2 -17 -4 -25 -14 -7 -11 -22 -30 -34 -44 l-20 -25 -1 78 c0 44 -4
77 -10 77 -6 0 -10 -50 -10 -130z"/>
<path d="M492 274 c-19 -13 -22 -24 -22 -84 0 -49 4 -73 16 -84 23 -23 80 -20
105 5 18 18 21 30 17 86 -3 49 -9 69 -23 79 -25 18 -65 18 -93 -2z m66 -77 c3
-47 -11 -82 -29 -71 -5 3 -9 32 -9 65 0 52 2 60 18 57 13 -2 18 -15 20 -51z"/>
<path d="M1248 280 c-24 -15 -41 -75 -33 -118 9 -47 31 -72 65 -72 34 0 56 24
64 73 16 85 -38 150 -96 117z m56 -26 c18 -18 22 -95 6 -125 -6 -10 -19 -19
-30 -19 -26 0 -40 29 -40 84 0 42 18 76 40 76 5 0 16 -7 24 -16z"/>
<path d="M1632 274 c-37 -26 -26 -64 26 -92 33 -19 42 -29 40 -46 -4 -30 -57
-36 -65 -7 -7 26 -23 28 -23 3 0 -55 95 -56 112 -2 8 24 -10 49 -53 70 -43 22
-48 44 -16 64 16 9 22 7 34 -11 18 -26 33 -30 33 -9 0 16 -37 46 -55 46 -6 0
-21 -7 -33 -16z"/>
<path d="M712 188 c3 -88 4 -93 26 -96 21 -3 22 -1 22 92 l0 96 -25 0 -26 0 3
-92z"/>
<path d="M1380 185 c0 -114 18 -128 22 -17 3 69 5 78 26 87 12 5 22 13 22 17
0 12 -25 9 -38 -4 -9 -9 -12 -9 -12 0 0 7 -4 12 -10 12 -6 0 -10 -38 -10 -95z"/>
</g>
</svg>
